<?xml version="1.0" encoding="UTF-8" standalone="no"?>
<svg
   xmlns:dc="http://purl.org/dc/elements/1.1/"
   xmlns:cc="http://creativecommons.org/ns#"
   xmlns:rdf="http://www.w3.org/1999/02/22-rdf-syntax-ns#"
   xmlns:svg="http://www.w3.org/2000/svg"
   xmlns="http://www.w3.org/2000/svg"
   version="1.1"
   id="svg10"
   width="1142.72"
   height="673.28003"
   viewBox="0 0 1142.72 673.28003">
  <metadata
     id="metadata16">
    <rdf:RDF>
      <cc:Work
         rdf:about="">
        <dc:format>image/svg+xml</dc:format>
        <dc:type
           rdf:resource="http://purl.org/dc/dcmitype/StillImage" />
        <dc:title></dc:title>
      </cc:Work>
    </rdf:RDF>
  </metadata>
  <defs
     id="defs14" />
  <g
     id="g18">
    <path
       style="fill:none;stroke:#dcdcdc;stroke-width:14.99999;stroke-linecap:butt;stroke-linejoin:round;stroke-miterlimit:4;stroke-dasharray:none;stroke-opacity:1"
       d="m 33.065565,537.88115 -8.021784,-1.43888 -13.342532,-3.49472 10.404297,8.25377 6.602791,2.63905 5.640936,1.43668 23.326387,2.84308 c 17.553093,-1.39945 79.05143,15.48166 156.34617,-78.14556 0,0 22.48574,-30.2261 37.94468,-47.91944"
       id="path854" />
    <path
       style="fill:none;stroke:#dcdcdc;stroke-width:10;stroke-linecap:butt;stroke-linejoin:miter;stroke-opacity:1;stroke-miterlimit:4;stroke-dasharray:none"
       d="m 286.30274,322.2602 -37.31434,50.88319 -6.10598,185.2148"
       id="path856" />
    <path
       style="fill:none;stroke:#dcdcdc;stroke-width:14.9;stroke-linecap:butt;stroke-linejoin:miter;stroke-opacity:1;stroke-miterlimit:4;stroke-dasharray:none"
       d="m 847.37471,257.12971 c -3.38951,-32.12782 0.10377,-64.96473 10.17663,-95.66039 0.22298,-0.6795 0.44913,-1.35795 0.67845,-2.03533"
       id="path860" />
    <path
       style="fill:none;stroke:#dcdcdc;stroke-width:15;stroke-linecap:round;stroke-linejoin:round;stroke-opacity:1;stroke-miterlimit:4;stroke-dasharray:none"
       d="m 858.22979,159.43399 c 0,0 34.60057,55.63229 36.63589,96.33884"
       id="path864" />
    <path
       style="fill:none;stroke:#dcdcdc;stroke-width:15;stroke-linecap:round;stroke-linejoin:round;stroke-opacity:1;stroke-miterlimit:4;stroke-dasharray:none"
       d="m 913.40841,302.23072 c 0,0 48.62308,-71.56026 115.78889,-90.55665"
       id="path866" />
    <path
       style="fill:none;stroke:#dcdcdc;stroke-width:15;stroke-linecap:butt;stroke-linejoin:miter;stroke-miterlimit:4;stroke-dasharray:none;stroke-opacity:1"
       d="m 852.96226,262.02906 4.79732,-3.77003 c 0,0 21.10817,-12.14785 71.95969,20.94459"
       id="path868" />
    <path
       style="fill:none;stroke:#dcdcdc;stroke-width:15;stroke-linecap:round;stroke-linejoin:miter;stroke-opacity:1;stroke-miterlimit:4;stroke-dasharray:none"
       d="m 1029.1973,211.67407 c 0,0 -17.444,54.09707 -82.2077,110.70537"
       id="path872" />
    <path
       style="fill:none;stroke:#dcdcdc;stroke-width:15;stroke-linecap:butt;stroke-linejoin:miter;stroke-miterlimit:4;stroke-dasharray:none;stroke-opacity:1"
       d="m 968.57133,304.65848 c 0,0 81.67387,42.19103 62.82607,60.42171 v 0"
       id="path876" />
    <path
       style="fill:none;stroke:#dcdcdc;stroke-width:15;stroke-linecap:round;stroke-linejoin:round;stroke-miterlimit:4;stroke-dasharray:none;stroke-opacity:1"
       d="m 946.98958,322.37943 c 0,0 62.22062,47.02489 84.40782,42.70076"
       id="path878" />
    <path
       style="fill:none;stroke:#dcdcdc;stroke-width:15;stroke-linecap:butt;stroke-linejoin:miter;stroke-miterlimit:4;stroke-dasharray:none;stroke-opacity:1"
       d="M 895.61086,260.99067 C 957.35188,99.668528 962.81197,106.5125 962.81197,106.5125"
       id="path880" />
    <path
       style="fill:none;stroke:#dcdcdc;stroke-width:14.99999;stroke-linecap:butt;stroke-linejoin:miter;stroke-miterlimit:4;stroke-dasharray:none;stroke-opacity:1"
       d="M 1012.3049,334.501 C 1086.464,192.61972 1093.022,198.63893 1093.022,198.63893"
       id="path880-9" />
    <path
       style="fill:none;stroke:#dcdcdc;stroke-width:15;stroke-linecap:round;stroke-linejoin:miter;stroke-miterlimit:4;stroke-dasharray:none;stroke-opacity:1"
       d="m 962.81197,106.5125 c 0,0 111.45533,-7.4005 130.21003,92.12643"
       id="path897" />
    <path
       style="fill:none;stroke:#dcdcdc;stroke-width:15;stroke-linecap:butt;stroke-linejoin:miter;stroke-miterlimit:4;stroke-dasharray:none;stroke-opacity:1"
       d="M 971.24749,339.20325 C 1033.964,447.3503 1033.964,447.7132 1033.964,447.7132 c 0,0 0.7379,7.2582 30.6205,4.35492"
       id="path901" />
    <path
       style="fill:none;stroke:#dcdcdc;stroke-width:11px;stroke-linecap:butt;stroke-linejoin:miter;stroke-opacity:1"
       d="M 233.62915,567.52214 Z"
       id="path911" />
    <path
       style="fill:none;stroke:#dcdcdc;stroke-width:15;stroke-linecap:round;stroke-linejoin:miter;stroke-miterlimit:4;stroke-dasharray:none;stroke-opacity:1"
       d="m 233.62915,567.52214 c 0,0 56.12856,10.07435 81.07459,4.31758 24.94602,-5.75678 -13.19262,-103.3821 10.07435,-120.41256 l 106.98009,-85.8719"
       id="path913" />
    <path
       style="fill:none;stroke:#dcdcdc;stroke-width:15;stroke-linecap:butt;stroke-linejoin:round;stroke-miterlimit:4;stroke-dasharray:none;stroke-opacity:1"
       d="m 351.16331,427.44059 74.35835,95.80575 11.14877,9.98934 11.95177,7.94206 14.19723,7.64865 16.42337,7.6022 15.6821,5.60728 16.65137,3.97271 11.61968,2.22047 17.94096,3.13093 19.40671,-1.35826 7.09657,-2.32621 3.57438,-2.95301 v 0 l 0.38936,-3.00495 -2.16287,-2.35085 c 0,0 -57.08803,-42.69608 -76.75701,-61.40561 l -5.66051,-18.84546 -3.85266,-21.46244 -1.62378,-24.46954 0.15468,-20.64873 3.30657,-34.50665"
       id="path915" />
    <path
       style="fill:none;stroke:#dcdcdc;stroke-width:15;stroke-linecap:butt;stroke-linejoin:miter;stroke-opacity:1;stroke-miterlimit:4;stroke-dasharray:none"
       d="m 431.75818,365.55526 c 0,0 93.06787,39.33796 253.29812,3.83785"
       id="path917" />
    <path
       style="fill:none;stroke:#dcdcdc;stroke-width:15;stroke-linecap:butt;stroke-linejoin:miter;stroke-opacity:1;stroke-miterlimit:4;stroke-dasharray:none"
       d="m 557.44778,381.86612 c 0,0 3.83785,187.09521 46.0542,203.40607"
       id="path919" />
    <path
       style="fill:none;stroke:#dcdcdc;stroke-width:15;stroke-linecap:round;stroke-linejoin:miter;stroke-miterlimit:4;stroke-dasharray:none;stroke-opacity:1"
       d="m 685.23091,361.32997 c 0,0 -1.11919,11.53273 -1.34718,26.38452 -0.31363,20.4313 3.58119,48.40481 29.66659,68.91051 6.1838,4.86108 13.61465,9.30248 22.53211,13.12425 20.54064,8.80313 37.53445,25.37789 44.84861,30.61033 14.30564,10.23406 21.47762,17.10725 27.90452,24.2813 2.33984,2.61187 11.35324,10.25475 13.95807,15.99519 2.71326,5.97941 -0.92126,10.0965 4.66056,14.63174 61.40561,49.89205 69.81795,36.33319 69.81795,36.33319 0,0 1.91893,-121.85175 -98.82464,-174.6222"
       id="path921" />
    <path
       style="fill:none;stroke:#dcdcdc;stroke-width:15;stroke-linecap:round;stroke-linejoin:round;stroke-opacity:1;stroke-miterlimit:4;stroke-dasharray:none"
       d="m 682.51317,402.31641 c 0,0 -72.59334,114.65679 -52.91851,152.31035 0,0 15.60418,20.6925 27.81614,26.79848 12.21197,6.10598 0.39394,18.8882 -53.90882,3.84695"
       id="path923" />
    <path
       style="fill:none;stroke:#dcdcdc;stroke-width:15;stroke-linecap:round;stroke-linejoin:round;stroke-miterlimit:4;stroke-dasharray:none;stroke-opacity:1"
       d="m 787.17378,393.06686 58.71059,30.40473 c 0,0 -9.70396,-7.2471 -13.09618,-15.38841 -3.39221,-8.14131 -8.48053,27.81614 188.94621,100.40949"
       id="path925" />
    <path
       style="fill:none;stroke:#dcdcdc;stroke-width:15;stroke-linecap:round;stroke-linejoin:round;stroke-miterlimit:4;stroke-dasharray:none;stroke-opacity:1"
       d="m 1021.7344,508.49267 c 0,0 1.0204,0.54127 2.9168,0.85229 8.1052,1.32929 19.6877,-5.78331 39.9333,-57.27684"
       id="path927" />
    <path
       style="fill:none;stroke:#dcdcdc;stroke-width:15;stroke-linecap:round;stroke-linejoin:round;stroke-opacity:1;stroke-miterlimit:4;stroke-dasharray:none"
       d="m 287.65963,326.33085 c 0,0 -38.67123,46.81254 -38.67123,46.81254 0,0 4.7491,56.64995 1.35689,101.42715 -3.39221,44.77721 -16.71614,92.9516 -16.71614,92.9516"
       id="path929" />
    <path
       style="fill:none;stroke:#dcdcdc;stroke-width:15;stroke-linecap:round;stroke-linejoin:miter;stroke-miterlimit:4;stroke-dasharray:none;stroke-opacity:1"
       d="m 929.71928,365.79512 c 0,0 36.45958,-23.0271 42.45622,19.90885"
       id="path931" />
    <path
       style="fill:none;stroke:#dcdcdc;stroke-width:15;stroke-linecap:butt;stroke-linejoin:miter;stroke-opacity:1;stroke-miterlimit:4;stroke-dasharray:none"
       d="m 787.17378,393.06686 c 0,0 5.21182,18.24746 11.27372,23.91194"
       id="path933" />
  </g>
  <g
     id="layer1">
    <path
       style="fill:none;stroke:#dcdcdc;stroke-width:15;stroke-linecap:round;stroke-linejoin:miter;stroke-miterlimit:4;stroke-dasharray:none;stroke-opacity:1"
       d="m 33.065565,537.88115 c 30.805073,1.99252 62.177876,-6.01788 88.256995,-22.5346 26.07913,-16.51672 46.73091,-41.4551 58.09695,-70.1559 2.12318,-5.36133 3.92915,-10.84172 5.75678,-16.31086 15.15398,-45.34779 31.96452,-90.33868 54.68937,-132.40584 25.46727,-47.14381 58.4356,-90.47818 98.82465,-125.68961 47.81575,-41.68606 106.35196,-71.736934 168.86542,-82.51378 82.13867,-14.160084 170.94468,7.022208 234.10887,61.40561 3.26092,2.80761 6.45184,5.69592 9.59463,8.63516 36.36373,34.00864 66.21906,74.76334 104.58142,106.50035 17.67313,14.6209 37.0311,27.20358 57.56776,37.41904"
       id="path23" />
  </g>
</svg>
